<svg width="24" height="18" viewBox="0 0 24 18" fill="none" xmlns="http://www.w3.org/2000/svg">
<path fill-rule="evenodd" clip-rule="evenodd" d="M14.144 6.49497C14.862 5.80862 15.3092 4.84138 15.3092 3.76969C15.3092 1.68775 13.6214 0 11.5395 0C9.45753 0 7.76979 1.68775 7.76979 3.76969C7.76979 4.89715 8.26475 5.90901 9.04924 6.59982C7.77279 7.4507 6.93186 8.90341 6.93186 10.5525V17.2542H16.4259V10.5525C16.4259 8.83356 15.5122 7.32799 14.144 6.49497ZM4.99876 8.97132C5.49226 8.49651 5.79934 7.82932 5.79934 7.09042C5.79934 5.64907 4.6309 4.48063 3.18955 4.48063C1.74821 4.48063 0.579769 5.64907 0.579769 7.09042C0.579769 7.86815 0.919969 8.56643 1.45967 9.04455C0.579461 9.63419 0 10.6379 0 11.7769V16.4165H6.57279V11.7769C6.57279 10.5892 5.9428 9.54873 4.99876 8.97132ZM22.6017 7.09042C22.6017 7.82932 22.2946 8.49651 21.8011 8.97132C22.7452 9.54873 23.3752 10.5892 23.3752 11.7769V16.4165H16.8024V11.7769C16.8024 10.6379 17.3818 9.63419 18.2621 9.04455C17.7223 8.56643 17.3821 7.86815 17.3821 7.09042C17.3821 5.64907 18.5506 4.48063 19.9919 4.48063C21.4333 4.48063 22.6017 5.64907 22.6017 7.09042Z" fill="#001959"/>
</svg>
