<svg width="16" height="16" viewBox="0 0 16 16" fill="none" xmlns="http://www.w3.org/2000/svg">
<path fill-rule="evenodd" clip-rule="evenodd" d="M2 0C0.895431 0 0 0.895431 0 2V14C0 15.1046 0.895431 16 2 16H14C15.1046 16 16 15.1046 16 14V2C16 0.895431 15.1046 0 14 0H2ZM9 3C9.55229 3 10 3.44772 10 4V5C10 5.55228 10.4477 6 11 6H12C12.5523 6 13 6.44772 13 7V9C13 9.55229 12.5523 10 12 10H11C10.4477 10 10 10.4477 10 11V12C10 12.5523 9.55229 13 9 13H7C6.44772 13 6 12.5523 6 12V11C6 10.4477 5.55228 10 5 10H4C3.44772 10 3 9.55228 3 9V7C3 6.44771 3.44772 6 4 6H5C5.55228 6 6 5.55228 6 5V4C6 3.44772 6.44772 3 7 3H9Z" fill="#001959"/>
</svg>
