<svg width="16" height="14" viewBox="0 0 16 14" fill="none" xmlns="http://www.w3.org/2000/svg">
<path fill-rule="evenodd" clip-rule="evenodd" d="M9.31769 8.9749L9.8613 9.87451C11.0984 9.50436 12 8.35747 12 7C12 5.60127 11.0427 4.42611 9.74759 4.0939L9.15723 5.00609C10.1883 5.08629 11 5.94836 11 7C11 7.99644 10.2713 8.82268 9.31769 8.9749ZM10.3912 10.7514L10.9159 11.6198C12.7266 10.868 14 9.08269 14 7C14 4.89939 12.7046 3.10133 10.8691 2.36107L10.3129 3.22045C11.8771 3.76376 13 5.25076 13 7C13 8.7199 11.9145 10.1863 10.3912 10.7514ZM11.75 13L11.9961 13.3282C14.3631 12.2055 16 9.79391 16 7C16 4.19363 14.3485 1.77298 11.9644 0.65686L11.75 0.999966L11.4209 1.50844C13.5288 2.43905 15 4.54772 15 7C15 9.44558 13.5368 11.5494 11.4381 12.4839L11.75 13ZM1.99998 10L1.99994 9.99998H1C0.447715 9.99998 0 9.55227 0 8.99998V4.99998C0 4.4477 0.447715 3.99998 1 3.99998H1.99999L6.99356 1.15252C7.49976 1.00002 7.99977 1.26081 7.99977 2.12711L7.99977 11.873C7.99977 12.7393 7.5 13 6.99356 12.8476L1.99998 10Z" fill="#001959"/>
</svg>
